<?xml version="1.0" encoding="UTF-8" standalone="no"?>
<!-- Created with Inkscape (http://www.inkscape.org/) -->

<svg
   xmlns:dc="http://purl.org/dc/elements/1.1/"
   xmlns:cc="http://creativecommons.org/ns#"
   xmlns:rdf="http://www.w3.org/1999/02/22-rdf-syntax-ns#"
   xmlns:svg="http://www.w3.org/2000/svg"
   xmlns="http://www.w3.org/2000/svg"
   xmlns:sodipodi="http://sodipodi.sourceforge.net/DTD/sodipodi-0.dtd"
   xmlns:inkscape="http://www.inkscape.org/namespaces/inkscape"
   version="1.1"
   width="744.09448"
   height="1052.3622"
   id="svg2"
   inkscape:version="0.48.2 r9819"
   sodipodi:docname="drawing-4.svg">
  <sodipodi:namedview
     pagecolor="#ffffff"
     bordercolor="#666666"
     borderopacity="1"
     objecttolerance="10"
     gridtolerance="10"
     guidetolerance="10"
     inkscape:pageopacity="0"
     inkscape:pageshadow="2"
     inkscape:window-width="1042"
     inkscape:window-height="769"
     id="namedview40"
     showgrid="false"
     inkscape:zoom="0.48"
     inkscape:cx="372.04724"
     inkscape:cy="526.18109"
     inkscape:window-x="0"
     inkscape:window-y="0"
     inkscape:window-maximized="0"
     inkscape:current-layer="svg2" />
  <defs
     id="defs4" />
  <metadata
     id="metadata7">
    <rdf:RDF>
      <cc:Work
         rdf:about="">
        <dc:format>image/svg+xml</dc:format>
        <dc:type
           rdf:resource="http://purl.org/dc/dcmitype/StillImage" />
        <dc:title />
      </cc:Work>
    </rdf:RDF>
  </metadata>
  <g
     id="layer1">
    <g
       transform="translate(-52,-47)"
       id="g3777">
      <rect
         width="210"
         height="182"
         ry="10.883148"
         x="131"
         y="318.36218"
         id="rect2985"
         style="fill:none;stroke:#000000;stroke-width:1;stroke-miterlimit:4;stroke-opacity:1;stroke-dasharray:none;stroke-dashoffset:0" />
      <a
         id="a3765">
        <text
           x="155"
           y="366.36218"
           id="text3757"
           xml:space="preserve"
           style="font-size:40px;font-style:normal;font-weight:normal;line-height:125%;letter-spacing:0px;word-spacing:0px;fill:#000000;fill-opacity:1;stroke:none;font-family:Sans"><tspan
             x="155"
             y="366.36218"
             id="tspan3759">hello</tspan></text>
      </a>
    </g>
    <g
       transform="matrix(1.0150302,0,0,0.98870063,39.116647,-175.71624)"
       id="g3792">
      <rect
         width="137"
         height="117"
         ry="10.883148"
         x="456"
         y="453.36218"
         id="rect3755"
         style="fill:none;stroke:#000000;stroke-width:1;stroke-miterlimit:4;stroke-opacity:1;stroke-dasharray:none;stroke-dashoffset:0" />
      <text
         x="471"
         y="503.36218"
         id="text3761"
         xml:space="preserve"
         style="font-size:40px;font-style:normal;font-weight:normal;line-height:125%;letter-spacing:0px;word-spacing:0px;fill:#000000;fill-opacity:1;stroke:none;font-family:Sans"><tspan
           x="471"
           y="503.36218"
           id="tspan3788">hiii</tspan></text>
    </g>
    <path
       d="M 289,353.69123 501.97042,336.10401"
       id="path3797"
       style="fill:none;stroke:#000000;stroke-width:1px;stroke-linecap:butt;stroke-linejoin:miter;stroke-opacity:1" />
    <g
       transform="translate(-96,101)"
       id="g3805">
      <rect
         width="290"
         height="182"
         ry="10.883148"
         x="313"
         y="577.36218"
         transform="translate(125,-120)"
         id="rect3799"
         style="fill:none;stroke:#000000;stroke-width:1;stroke-miterlimit:4;stroke-opacity:1;stroke-dasharray:none;stroke-dashoffset:0" />
      <text
         x="471"
         y="509.36218"
         id="text3801"
         xml:space="preserve"
         style="font-size:40px;font-style:normal;font-weight:normal;line-height:125%;letter-spacing:0px;word-spacing:0px;fill:#000000;fill-opacity:1;stroke:none;font-family:Sans"><tspan
           x="471"
           y="509.36218"
           id="tspan3803">br</tspan></text>
    </g>
    <path
       d="M 279.91792,453.21513 390.92683,558.36218"
       id="path3812"
       style="fill:none;stroke:#000000;stroke-width:1px;stroke-linecap:butt;stroke-linejoin:miter;stroke-opacity:1" />
    <path
       d="M 556.179,388.20121 511.10501,558.36218"
       id="path3814"
       style="fill:none;stroke:#000000;stroke-width:1px;stroke-linecap:butt;stroke-linejoin:miter;stroke-opacity:1" />
    <g
       transform="translate(37,-93)"
       id="g3872">
      <g
         transform="translate(-92,80)"
         id="g3851">
        <g
           id="g3845">
          <g
             transform="translate(-45,207)"
             id="g3822">
            <rect
               width="135"
               height="135"
               ry="10.883148"
               x="38"
               y="560.36218"
               transform="translate(125,-120)"
               id="rect3816"
               style="fill:none;stroke:#000000;stroke-width:1;stroke-miterlimit:4;stroke-opacity:1;stroke-dasharray:none;stroke-dashoffset:0" />
            <text
               x="181"
               y="477.36218"
               id="text3818"
               xml:space="preserve"
               style="font-size:40px;font-style:normal;font-weight:normal;line-height:125%;letter-spacing:0px;word-spacing:0px;fill:#000000;fill-opacity:1;stroke:none;font-family:Sans"><tspan
                 x="181"
                 y="477.36218"
                 id="tspan3820">weee</tspan></text>
          </g>
        </g>
      </g>
    </g>
    <path
       d="M 198,691.92179 342,670.71562"
       id="path3882"
       style="fill:none;stroke:#000000;stroke-width:1px;stroke-linecap:butt;stroke-linejoin:miter;stroke-opacity:1" />
    <g
       transform="translate(9,4)"
       id="g3892">
      <rect
         width="100"
         height="73"
         ry="10.883148"
         x="56"
         y="507.36218"
         id="rect3884"
         style="fill:none;stroke:#000000;stroke-width:1;stroke-miterlimit:4;stroke-opacity:1;stroke-dasharray:none;stroke-dashoffset:0" />
      <text
         x="70"
         y="540.36218"
         id="text3888"
         xml:space="preserve"
         style="font-size:40px;font-style:normal;font-weight:normal;line-height:125%;letter-spacing:0px;word-spacing:0px;fill:#000000;fill-opacity:1;stroke:none;font-family:Sans"><tspan
           x="70"
           y="540.36218"
           id="tspan3890">one</tspan></text>
    </g>
    <path
       d="m 165,561.50466 177,48.29435"
       id="path3897"
       style="fill:none;stroke:#000000;stroke-width:1px;stroke-linecap:butt;stroke-linejoin:miter;stroke-opacity:1" />
    <g
       transform="translate(-6,-11)"
       id="g3905">
      <rect
         width="132"
         height="86"
         ry="10.883148"
         x="357"
         y="399.36218"
         id="rect3899"
         style="fill:none;stroke:#000000;stroke-width:1;stroke-miterlimit:4;stroke-opacity:1;stroke-dasharray:none;stroke-dashoffset:0" />
      <text
         x="375"
         y="442.36218"
         id="text3901"
         xml:space="preserve"
         style="font-size:40px;font-style:normal;font-weight:normal;line-height:125%;letter-spacing:0px;word-spacing:0px;fill:#000000;fill-opacity:1;stroke:none;font-family:Sans"><tspan
           x="375"
           y="442.36218"
           id="tspan3903">ert</tspan></text>
    </g>
    <path
       d="m 430.80734,474.36218 26.97248,84"
       id="path3910"
       style="fill:none;stroke:#000000;stroke-width:1px;stroke-linecap:butt;stroke-linejoin:miter;stroke-opacity:1" />
  </g>
  <path
     style="fill:none;stroke:#000000;stroke-width:1px;stroke-linecap:butt;stroke-linejoin:miter;stroke-opacity:1"
     d="m 68.75,66.945516 c 2.777778,0 5.609498,-0.544767 8.333333,0 0.963022,0.192604 1.388889,1.388889 2.083334,2.083333 1.388889,1.388889 2.595318,2.988156 4.166666,4.166667 1.24226,0.931695 3.068654,0.98532 4.166667,2.083333 1.770493,1.770493 2.602521,4.294818 4.166667,6.25 1.227017,1.533771 2.777777,2.777778 4.166666,4.166667 2.083334,2.083333 3.986607,4.363839 6.249997,6.25 3.84703,3.205858 8.58964,5.205042 12.5,8.333334 1.53377,1.22702 2.6329,2.93965 4.16667,4.16667 1.95518,1.56414 4.47951,2.39617 6.25,4.16666 1.09801,1.09802 1.15164,2.92441 2.08333,4.16667 1.76777,2.35702 4.6157,3.79855 6.25,6.25 3.19187,4.7878 0.17365,4.16667 4.16667,4.16667"
     id="path3017"
     inkscape:connector-curvature="0" />
  <path
     style="fill:none;stroke:#000000;stroke-width:1px;stroke-linecap:butt;stroke-linejoin:miter;stroke-opacity:1"
     d="m 77.083333,137.77885 c 0,-2.77778 -0.456664,-5.59335 0,-8.33333 0.255283,-1.5317 1.388889,-2.77778 2.083334,-4.16667 1.388889,-2.77778 2.568823,-5.67026 4.166666,-8.33333 1.288223,-2.14704 2.839626,-4.12674 4.166667,-6.25 2.14611,-3.43378 4.2835,-6.87697 6.25,-10.41667 1.508237,-2.714827 2.361544,-5.806163 4.166667,-8.333334 1.712489,-2.397485 4.363843,-3.986606 6.250003,-6.25 1.60293,-1.923515 2.60252,-4.294818 4.16666,-6.25 0.42283,-0.528535 7.82619,-7.319031 8.33334,-8.333333 1.43683,-2.873661 -2.52303,-1.863485 2.08333,-4.166667 0.62113,-0.310565 1.4622,0.310565 2.08333,0 0.87841,-0.439205 1.26619,-1.538566 2.08334,-2.083333 1.29203,-0.861353 2.87463,-1.221981 4.16666,-2.083334 1.6343,-1.089534 2.77778,-2.777777 4.16667,-4.166666"
     id="path3019"
     inkscape:connector-curvature="0" />
</svg>
