<?xml version="1.0" encoding="UTF-8" standalone="no"?>
<!-- Created with Inkscape (http://www.inkscape.org/) -->

<svg
   xmlns:osb="http://www.openswatchbook.org/uri/2009/osb"
   xmlns:dc="http://purl.org/dc/elements/1.1/"
   xmlns:cc="http://creativecommons.org/ns#"
   xmlns:rdf="http://www.w3.org/1999/02/22-rdf-syntax-ns#"
   xmlns:svg="http://www.w3.org/2000/svg"
   xmlns="http://www.w3.org/2000/svg"
   xmlns:xlink="http://www.w3.org/1999/xlink"
   xmlns:sodipodi="http://sodipodi.sourceforge.net/DTD/sodipodi-0.dtd"
   xmlns:inkscape="http://www.inkscape.org/namespaces/inkscape"
   version="1.1"
   width="345.21887"
   height="306.32828"
   id="svg2"
   inkscape:version="0.48.2 r9819"
   sodipodi:docname="drawing-4.svg">
  <sodipodi:namedview
     pagecolor="#ffffff"
     bordercolor="#f2f2f2"
     borderopacity="1"
     objecttolerance="10"
     gridtolerance="10000"
     guidetolerance="10"
     inkscape:pageopacity="0"
     inkscape:pageshadow="2"
     inkscape:window-width="938"
     inkscape:window-height="865"
     id="namedview40"
     showgrid="true"
     inkscape:zoom="1.085"
     inkscape:cx="168.24898"
     inkscape:cy="273.8"
     inkscape:window-x="0"
     inkscape:window-y="0"
     inkscape:window-maximized="0"
     inkscape:current-layer="svg2"
     inkscape:snap-global="true"
     inkscape:snap-grids="true"
     fit-margin-top="5"
     fit-margin-left="5"
     fit-margin-right="5"
     fit-margin-bottom="5"
     borderlayer="false"
     inkscape:showpageshadow="false"
     inkscape:snap-nodes="false"
     inkscape:snap-bbox="true"
     inkscape:snap-bbox-midpoints="true"
     showborder="false"
     inkscape:connector-spacing="5">
    <inkscape:grid
       type="xygrid"
       id="grid3019"
       empspacing="10"
       dotted="true"
       visible="true"
       enabled="true"
       snapvisiblegridlinesonly="true"
       spacingx="10px"
       spacingy="10px"
       color="#c5c5c5"
       opacity="1"
       empcolor="#cecece"
       empopacity="1" />
  </sodipodi:namedview>
  <defs
     id="defs4">
    <linearGradient
       id="linearGradient5858">
      <stop
         id="stop5868"
         offset="0"
         style="stop-color:#04c8fc;stop-opacity:0.49803922;" />
      <stop
         style="stop-color:#04c8fc;stop-opacity:0;"
         offset="1"
         id="stop5862" />
    </linearGradient>
    <linearGradient
       id="linearGradient5850"
       osb:paint="solid">
      <stop
         style="stop-color:#04c8fc;stop-opacity:1;"
         offset="0"
         id="stop5852" />
    </linearGradient>
    <pattern
       inkscape:collect="always"
       xlink:href="#pattern3021"
       id="pattern3026"
       patternTransform="translate(169,52.362183)" />
    <pattern
       patternUnits="userSpaceOnUse"
       width="101"
       height="101"
       patternTransform="translate(49.5,61.875)"
       id="pattern3021">
      <rect
         ry="10"
         y="0.48718262"
         x="0.5"
         height="100"
         width="100"
         id="rect3017"
         style="fill:none;stroke:#000000;stroke-width:1;stroke-miterlimit:4;stroke-opacity:1;stroke-dasharray:none;stroke-dashoffset:0" />
    </pattern>
    <filter
       inkscape:collect="always"
       id="filter5116"
       x="-0.13298213"
       width="1.2659643"
       y="-0.13259222"
       height="1.2651844"
       color-interpolation-filters="sRGB">
      <feGaussianBlur
         inkscape:collect="always"
         stdDeviation="5.4622624"
         id="feGaussianBlur5118" />
    </filter>
    <linearGradient
       inkscape:collect="always"
       xlink:href="#linearGradient5858"
       id="linearGradient6152"
       gradientUnits="userSpaceOnUse"
       x1="-1.9818304"
       y1="61.44136"
       x2="122.81741"
       y2="61.44136" />
    <linearGradient
       inkscape:collect="always"
       xlink:href="#linearGradient5858"
       id="linearGradient3042"
       gradientUnits="userSpaceOnUse"
       x1="-1.9818304"
       y1="61.44136"
       x2="122.81741"
       y2="61.44136" />
    <linearGradient
       inkscape:collect="always"
       xlink:href="#linearGradient5858"
       id="linearGradient3044"
       gradientUnits="userSpaceOnUse"
       x1="-1.9818304"
       y1="61.44136"
       x2="122.81741"
       y2="61.44136" />
    <linearGradient
       inkscape:collect="always"
       xlink:href="#linearGradient5858"
       id="linearGradient3143"
       gradientUnits="userSpaceOnUse"
       x1="-1.9818304"
       y1="61.44136"
       x2="122.81741"
       y2="61.44136" />
    <linearGradient
       inkscape:collect="always"
       xlink:href="#linearGradient5858"
       id="linearGradient3184"
       gradientUnits="userSpaceOnUse"
       x1="-1.9818304"
       y1="61.44136"
       x2="122.81741"
       y2="61.44136" />
  </defs>
  <metadata
     id="metadata7">
    <rdf:RDF>
      <cc:Work
         rdf:about="">
        <dc:format>image/svg+xml</dc:format>
        <dc:type
           rdf:resource="http://purl.org/dc/dcmitype/StillImage" />
        <dc:title />
      </cc:Work>
    </rdf:RDF>
  </metadata>
  <path
     style="fill:none;stroke:#000000;stroke-width:1px;stroke-linecap:butt;stroke-linejoin:miter;stroke-opacity:1"
     d="m 277.60943,67.10943 0,45 c 0,7.5 -7.5,15 -15,15 l -145.5,0"
     id="path3085"
     inkscape:connector-type="orthogonal"
     inkscape:connector-curvature="15"
     inkscape:connection-start="#use3046"
     inkscape:connection-start-point="d4"
     inkscape:connection-end="#g3050"
     inkscape:connection-end-point="d4" />
  <g
     id="g3050"
     transform="translate(2.1094303,60.10943)">
    <g
       style="display:inline"
       transform="translate(-170,-22)"
       id="g3032">
      <g
         transform="translate(25,-15)"
         id="g4117">
        <g
           id="g3039"
           transform="translate(-10,2)">
          <rect
             style="fill:url(#pattern3026);stroke:none"
             width="101"
             height="101"
             x="169"
             y="52"
             id="rect3024" />
        </g>
        <path
           transform="translate(150,43)"
           style="fill:url(#linearGradient3184);fill-opacity:1;stroke:none;filter:url(#filter5116)"
           d="m 19,110 c -2,0 -4,0 -5,0 -2,0 -2,0 -3,-10 0,0 0,-12 0,-39 0,-46 0,-42 2,-45 1,-1 2,-3 4,-3 l 2,-1 40,0 c 25,0 41,0 41,0 10,1 10,3 10,5 l 0,2 0,42 0,39 0,10 c 0,0 0,0 -10,0 l 0,0 -39,0 c -23,0 -41,0 -42,0 z m 4,-81 0,-1 2,0 1,0 0,1 c 0,2 1,2 1,2 0,0 0,0 0,-4 0,-3 0,-4 0,-4 0,0 -1,1 -1,2 l 0,1 -1,0 -2,0 0,-1 c 0,-2 0,-2 -1,-2 0,0 0,1 0,4 0,2 0,4 0,4 0,0 0,0 1,0 0,0 0,0 0,-2 z m 7,-1 c 0,-2 0,-3 0,-3 0,0 -1,1 -1,3 0,3 0,3 1,3 0,0 0,0 0,-3 z m 7,2 c 0,0 0,0 -1,0 0,0 -1,0 0,1 0,0 1,0 1,-1 l 0,0 z m 0,-2 c 0,-1 0,-3 0,-3 0,-2 0,-2 -1,-2 l 0,0 0,3 c 0,2 0,3 0,3 0,0 0,0 1,-1 l 0,0 z m -7,-4 c 0,-1 0,-1 -1,-1 0,1 0,1 1,1 0,0 0,0 0,0 z"
           id="path5074"
           inkscape:connector-curvature="0" />
      </g>
    </g>
    <text
       xml:space="preserve"
       style="font-size:40px;font-style:normal;font-weight:normal;line-height:125%;letter-spacing:0px;word-spacing:0px;fill:#000000;fill-opacity:1;stroke:none;font-family:Sans"
       x="26.421875"
       y="39.114532"
       id="text3028"
       sodipodi:linespacing="125%"><tspan
         sodipodi:role="line"
         id="tspan3030"
         x="26.421875"
         y="39.114532"
         style="font-size:12px;font-style:normal;font-variant:normal;font-weight:normal;font-stretch:normal;font-family:Calibri;-inkscape-font-specification:Calibri">Hi there!!</tspan></text>
  </g>
  <use
     x="0"
     y="0"
     xlink:href="#g3032"
     id="use3063"
     transform="translate(149.5,172.21886)"
     width="130"
     height="140" />
  <use
     x="0"
     y="0"
     xlink:href="#g3032"
     id="use3046"
     transform="translate(212.10943,0.10943031)"
     width="130"
     height="140" />
  <path
     style="fill:none;stroke:#000000;stroke-width:1px;stroke-linecap:butt;stroke-linejoin:miter;stroke-opacity:1"
     d="m 215,239.21886 0,-102.10943 c 0,-5 -5,-10 -10,-10 l -87.89057,0"
     id="path3180"
     inkscape:connector-type="orthogonal"
     inkscape:connector-curvature="10"
     inkscape:connection-start="#use3063"
     inkscape:connection-start-point="d4"
     inkscape:connection-end="#g3050"
     inkscape:connection-end-point="d4" />
</svg>
